# xmcd
#
# Track frame offsets:
#	150
#	16350
#	34875
#	47775
#	63150
#	79725
#	95475
#	106650
#	118800
#	134325
#	150075
#	166275
#	184800
#	197700
#	213075
#	229650
#	245400
#	256575
#	268725
#	284250
#
# Disc length: 4003 seconds
#
# Revision: 1
# Processed by: cddbd v1.5.1PL2 Copyright (c) Steve Scherf et al.
# Submitted via: audiograbber 1.83.01
#
DISCID=070fa114
DTITLE=Country Hits Today - Cht9901
DYEAR=1900
DGENRE=Karaoke
TTITLE0=Sara Evans - No Place That Far
TTITLE1=Garth Brooks - It's Your Song
TTITLE2=Reba Mcentire - Wrong Night
TTITLE3=Tim Mcgraw - For A Little While
TTITLE4=Jo Dee Messina - Stand Beside Me
TTITLE5=Wilkinsons - Fly (The Angel Song)
TTITLE6=Diamond Rio - Unbelievable
TTITLE7=Clay Walker - You're Beginning To Get To Me
TTITLE8=Wade Hayes - How Do You Sleep At Night
TTITLE9=Aaron Tippin - For You I Will
TTITLE10=Sara Evans - No Place That Far (Vocal)
TTITLE11=Garth Brooks - It's Your Song (Vocal)
TTITLE12=Reba Mcentire - Wrong Night (Vocal)
TTITLE13=Tim Mcgraw - For A Little While (Vocal)
TTITLE14=Jo Dee Messina - Stand Beside Me (Vocal)
TTITLE15=Wilkinsons - Fly (The Angel Song) (Vocal)
TTITLE16=Diamond Rio - Unbelievable (Vocal)
TTITLE17=Clay Walker - You're Beginning To Get To Me (Vocal)
TTITLE18=Wade Hayes - How Do You Sleep At Night (Vocal)
TTITLE19=Aaron Tippin - For You I Will (Vocal)
EXTD=
EXTT0=
EXTT1=
EXTT2=
EXTT3=
EXTT4=
EXTT5=
EXTT6=
EXTT7=
EXTT8=
EXTT9=
EXTT10=
EXTT11=
EXTT12=
EXTT13=
EXTT14=
EXTT15=
EXTT16=
EXTT17=
EXTT18=
EXTT19=
PLAYORDER=
